<svg xmlns="http://www.w3.org/2000/svg" xmlns:xlink="http://www.w3.org/1999/xlink" version="1.1" x="0px" y="0px" viewBox="0 0 100 100" enable-background="new 0 0 100 100" xml:space="preserve"><g><g><path fill="#000000" d="M67.1,92H27.4c-2.2,0-3.9-1.8-3.9-3.9V11.9c0-2.2,1.8-3.9,3.9-3.9h39.8c2.2,0,3.9,1.8,3.9,3.9v76.2    C71.1,90.3,69.3,92,67.1,92z M27.4,11c-0.5,0-0.9,0.4-0.9,0.9v76.2c0,0.5,0.4,0.9,0.9,0.9h39.8c0.5,0,0.9-0.4,0.9-0.9V11.9    c0-0.5-0.4-0.9-0.9-0.9H27.4z"/></g><g><path fill="#000000" d="M38.2,22.9c-0.5,0-0.9-0.2-1.2-0.6l-4.3-5.7c-0.4-0.5-0.4-1.3,0-1.8L37.1,9c0.5-0.7,1.4-0.8,2.1-0.3    c0.7,0.5,0.8,1.4,0.3,2.1l-3.7,4.9l3.6,4.8c0.5,0.7,0.4,1.6-0.3,2.1C38.8,22.8,38.5,22.9,38.2,22.9z"/></g><g><path fill="#000000" d="M49.5,22.9c-0.5,0-0.9-0.2-1.2-0.6l-4.3-5.7c-0.4-0.5-0.4-1.3,0-1.8L48.5,9c0.5-0.7,1.4-0.8,2.1-0.3    c0.7,0.5,0.8,1.4,0.3,2.1l-3.7,4.9l3.6,4.8c0.5,0.7,0.4,1.6-0.3,2.1C50.2,22.8,49.9,22.9,49.5,22.9z"/></g><g><path fill="#000000" d="M60.9,22.9c-0.5,0-0.9-0.2-1.2-0.6l-4.3-5.7c-0.4-0.5-0.4-1.3,0-1.8L59.8,9c0.5-0.7,1.4-0.8,2.1-0.3    c0.7,0.5,0.8,1.4,0.3,2.1l-3.7,4.9l3.6,4.8c0.5,0.7,0.4,1.6-0.3,2.1C61.5,22.8,61.2,22.9,60.9,22.9z"/></g><g><path fill="#000000" d="M33.9,17.2H26c-0.8,0-1.5-0.7-1.5-1.5s0.7-1.5,1.5-1.5h7.9c0.8,0,1.5,0.7,1.5,1.5S34.7,17.2,33.9,17.2z"/></g><g><path fill="#000000" d="M68.9,22.9H61c-0.8,0-1.5-0.7-1.5-1.5s0.7-1.5,1.5-1.5h7.9c0.8,0,1.5,0.7,1.5,1.5S69.7,22.9,68.9,22.9z"/></g><g><path fill="#000000" d="M38.2,34.3c-0.5,0-0.9-0.2-1.2-0.6l-4.3-5.7c-0.4-0.5-0.4-1.3,0-1.8l4.4-5.8c0.5-0.7,1.4-0.8,2.1-0.3    c0.7,0.5,0.8,1.4,0.3,2.1l-3.7,4.9l3.6,4.8c0.5,0.7,0.4,1.6-0.3,2.1C38.8,34.2,38.5,34.3,38.2,34.3z"/></g><g><path fill="#000000" d="M49.5,34.3c-0.5,0-0.9-0.2-1.2-0.6l-4.3-5.7c-0.4-0.5-0.4-1.3,0-1.8l4.4-5.8c0.5-0.7,1.4-0.8,2.1-0.3    c0.7,0.5,0.8,1.4,0.3,2.1l-3.7,4.9l3.6,4.8c0.5,0.7,0.4,1.6-0.3,2.1C50.2,34.2,49.9,34.3,49.5,34.3z"/></g><g><path fill="#000000" d="M60.9,34.3c-0.5,0-0.9-0.2-1.2-0.6l-4.3-5.7c-0.4-0.5-0.4-1.3,0-1.8l4.4-5.8c0.5-0.7,1.4-0.8,2.1-0.3    c0.7,0.5,0.8,1.4,0.3,2.1l-3.7,4.9l3.6,4.8c0.5,0.7,0.4,1.6-0.3,2.1C61.5,34.2,61.2,34.3,60.9,34.3z"/></g><g><path fill="#000000" d="M33.9,28.7H26c-0.8,0-1.5-0.7-1.5-1.5s0.7-1.5,1.5-1.5h7.9c0.8,0,1.5,0.7,1.5,1.5S34.7,28.7,33.9,28.7z"/></g><g><path fill="#000000" d="M68.9,34.3H61c-0.8,0-1.5-0.7-1.5-1.5s0.7-1.5,1.5-1.5h7.9c0.8,0,1.5,0.7,1.5,1.5S69.7,34.3,68.9,34.3z"/></g><g><path fill="#000000" d="M38.2,45.8c-0.5,0-0.9-0.2-1.2-0.6l-4.3-5.7c-0.4-0.5-0.4-1.3,0-1.8l4.4-5.8c0.5-0.7,1.4-0.8,2.1-0.3    c0.7,0.5,0.8,1.4,0.3,2.1l-3.7,4.9l3.6,4.8c0.5,0.7,0.4,1.6-0.3,2.1C38.8,45.7,38.5,45.8,38.2,45.8z"/></g><g><path fill="#000000" d="M49.5,45.8c-0.5,0-0.9-0.2-1.2-0.6l-4.3-5.7c-0.4-0.5-0.4-1.3,0-1.8l4.4-5.8c0.5-0.7,1.4-0.8,2.1-0.3    c0.7,0.5,0.8,1.4,0.3,2.1l-3.7,4.9l3.6,4.8c0.5,0.7,0.4,1.6-0.3,2.1C50.2,45.7,49.9,45.8,49.5,45.8z"/></g><g><path fill="#000000" d="M60.9,45.8c-0.5,0-0.9-0.2-1.2-0.6l-4.3-5.7c-0.4-0.5-0.4-1.3,0-1.8l4.4-5.8c0.5-0.7,1.4-0.8,2.1-0.3    c0.7,0.5,0.8,1.4,0.3,2.1l-3.7,4.9l3.6,4.8c0.5,0.7,0.4,1.6-0.3,2.1C61.5,45.7,61.2,45.8,60.9,45.8z"/></g><g><path fill="#000000" d="M33.9,40.2H26c-0.8,0-1.5-0.7-1.5-1.5s0.7-1.5,1.5-1.5h7.9c0.8,0,1.5,0.7,1.5,1.5S34.7,40.2,33.9,40.2z"/></g><g><path fill="#000000" d="M68.9,45.8H61c-0.8,0-1.5-0.7-1.5-1.5s0.7-1.5,1.5-1.5h7.9c0.8,0,1.5,0.7,1.5,1.5S69.7,45.8,68.9,45.8z"/></g><g><path fill="#000000" d="M38.2,57.3c-0.5,0-0.9-0.2-1.2-0.6l-4.3-5.7c-0.4-0.5-0.4-1.3,0-1.8l4.4-5.8c0.5-0.7,1.4-0.8,2.1-0.3    c0.7,0.5,0.8,1.4,0.3,2.1l-3.7,4.9l3.6,4.8c0.5,0.7,0.4,1.6-0.3,2.1C38.8,57.2,38.5,57.3,38.2,57.3z"/></g><g><path fill="#000000" d="M49.5,57.3c-0.5,0-0.9-0.2-1.2-0.6l-4.3-5.7c-0.4-0.5-0.4-1.3,0-1.8l4.4-5.8c0.5-0.7,1.4-0.8,2.1-0.3    c0.7,0.5,0.8,1.4,0.3,2.1l-3.7,4.9l3.6,4.8c0.5,0.7,0.4,1.6-0.3,2.1C50.2,57.2,49.9,57.3,49.5,57.3z"/></g><g><path fill="#000000" d="M60.9,57.3c-0.5,0-0.9-0.2-1.2-0.6l-4.3-5.7c-0.4-0.5-0.4-1.3,0-1.8l4.4-5.8c0.5-0.7,1.4-0.8,2.1-0.3    c0.7,0.5,0.8,1.4,0.3,2.1l-3.7,4.9l3.6,4.8c0.5,0.7,0.4,1.6-0.3,2.1C61.5,57.2,61.2,57.3,60.9,57.3z"/></g><g><path fill="#000000" d="M33.9,51.6H26c-0.8,0-1.5-0.7-1.5-1.5s0.7-1.5,1.5-1.5h7.9c0.8,0,1.5,0.7,1.5,1.5S34.7,51.6,33.9,51.6z"/></g><g><path fill="#000000" d="M68.9,57.3H61c-0.8,0-1.5-0.7-1.5-1.5s0.7-1.5,1.5-1.5h7.9c0.8,0,1.5,0.7,1.5,1.5S69.7,57.3,68.9,57.3z"/></g><g><path fill="#000000" d="M38.2,68.8c-0.5,0-0.9-0.2-1.2-0.6l-4.3-5.7c-0.4-0.5-0.4-1.3,0-1.8l4.4-5.8c0.5-0.7,1.4-0.8,2.1-0.3    c0.7,0.5,0.8,1.4,0.3,2.1l-3.7,4.9l3.6,4.8c0.5,0.7,0.4,1.6-0.3,2.1C38.8,68.7,38.5,68.8,38.2,68.8z"/></g><g><path fill="#000000" d="M49.5,68.8c-0.5,0-0.9-0.2-1.2-0.6l-4.3-5.7c-0.4-0.5-0.4-1.3,0-1.8l4.4-5.8c0.5-0.7,1.4-0.8,2.1-0.3    c0.7,0.5,0.8,1.4,0.3,2.1l-3.7,4.9l3.6,4.8c0.5,0.7,0.4,1.6-0.3,2.1C50.2,68.7,49.9,68.8,49.5,68.8z"/></g><g><path fill="#000000" d="M60.9,68.8c-0.5,0-0.9-0.2-1.2-0.6l-4.3-5.7c-0.4-0.5-0.4-1.3,0-1.8l4.4-5.8c0.5-0.7,1.4-0.8,2.1-0.3    c0.7,0.5,0.8,1.4,0.3,2.1l-3.7,4.9l3.6,4.8c0.5,0.7,0.4,1.6-0.3,2.1C61.5,68.7,61.2,68.8,60.9,68.8z"/></g><g><path fill="#000000" d="M33.9,63.1H26c-0.8,0-1.5-0.7-1.5-1.5s0.7-1.5,1.5-1.5h7.9c0.8,0,1.5,0.7,1.5,1.5S34.7,63.1,33.9,63.1z"/></g><g><path fill="#000000" d="M68.9,68.8H61c-0.8,0-1.5-0.7-1.5-1.5s0.7-1.5,1.5-1.5h7.9c0.8,0,1.5,0.7,1.5,1.5S69.7,68.8,68.9,68.8z"/></g><g><path fill="#000000" d="M38.2,80.3c-0.5,0-0.9-0.2-1.2-0.6L32.7,74c-0.4-0.5-0.4-1.3,0-1.8l4.4-5.8c0.5-0.7,1.4-0.8,2.1-0.3    c0.7,0.5,0.8,1.4,0.3,2.1l-3.7,4.9l3.6,4.8c0.5,0.7,0.4,1.6-0.3,2.1C38.8,80.2,38.5,80.3,38.2,80.3z"/></g><g><path fill="#000000" d="M49.5,80.3c-0.5,0-0.9-0.2-1.2-0.6L44.1,74c-0.4-0.5-0.4-1.3,0-1.8l4.4-5.8c0.5-0.7,1.4-0.8,2.1-0.3    c0.7,0.5,0.8,1.4,0.3,2.1l-3.7,4.9l3.6,4.8c0.5,0.7,0.4,1.6-0.3,2.1C50.2,80.2,49.9,80.3,49.5,80.3z"/></g><g><path fill="#000000" d="M60.9,80.3c-0.5,0-0.9-0.2-1.2-0.6L55.4,74c-0.4-0.5-0.4-1.3,0-1.8l4.4-5.8c0.5-0.7,1.4-0.8,2.1-0.3    c0.7,0.5,0.8,1.4,0.3,2.1l-3.7,4.9l3.6,4.8c0.5,0.7,0.4,1.6-0.3,2.1C61.5,80.2,61.2,80.3,60.9,80.3z"/></g><g><path fill="#000000" d="M33.9,74.6H26c-0.8,0-1.5-0.7-1.5-1.5s0.7-1.5,1.5-1.5h7.9c0.8,0,1.5,0.7,1.5,1.5S34.7,74.6,33.9,74.6z"/></g><g><path fill="#000000" d="M68.9,80.3H61c-0.8,0-1.5-0.7-1.5-1.5s0.7-1.5,1.5-1.5h7.9c0.8,0,1.5,0.7,1.5,1.5S69.7,80.3,68.9,80.3z"/></g><g><path fill="#000000" d="M38.2,91.7c-0.5,0-0.9-0.2-1.2-0.6l-4.3-5.7c-0.4-0.5-0.4-1.3,0-1.8l4.4-5.8c0.5-0.7,1.4-0.8,2.1-0.3    c0.7,0.5,0.8,1.4,0.3,2.1l-3.7,4.9l3.6,4.8c0.5,0.7,0.4,1.6-0.3,2.1C38.8,91.6,38.5,91.7,38.2,91.7z"/></g><g><path fill="#000000" d="M49.5,91.7c-0.5,0-0.9-0.2-1.2-0.6l-4.3-5.7c-0.4-0.5-0.4-1.3,0-1.8l4.4-5.8c0.5-0.7,1.4-0.8,2.1-0.3    c0.7,0.5,0.8,1.4,0.3,2.1l-3.7,4.9l3.6,4.8c0.5,0.7,0.4,1.6-0.3,2.1C50.2,91.6,49.9,91.7,49.5,91.7z"/></g><g><path fill="#000000" d="M60.9,91.7c-0.5,0-0.9-0.2-1.2-0.6l-4.3-5.7c-0.4-0.5-0.4-1.3,0-1.8l4.4-5.8c0.5-0.7,1.4-0.8,2.1-0.3    c0.7,0.5,0.8,1.4,0.3,2.1l-3.7,4.9l3.6,4.8c0.5,0.7,0.4,1.6-0.3,2.1C61.5,91.6,61.2,91.7,60.9,91.7z"/></g><g><path fill="#000000" d="M33.9,86.1H26c-0.8,0-1.5-0.7-1.5-1.5s0.7-1.5,1.5-1.5h7.9c0.8,0,1.5,0.7,1.5,1.5S34.7,86.1,33.9,86.1z"/></g></g></svg>