<svg xmlns="http://www.w3.org/2000/svg" xmlns:xlink="http://www.w3.org/1999/xlink" x="0px" y="0px" version="1.1" viewBox="0 0 100 100" xml:space="preserve">
    <path stroke="null" id="svg_1" clip-rule="evenodd" d="m65.695035,0.851911l0,33.862183l33.858638,0l0,-33.862183l-33.858638,0zm26.356684,26.357866l-18.855912,0l0,-18.855912l18.855912,0l0,18.855912zm-79.847543,60.989268l11.544195,0l0,-11.544195l-11.544195,0l0,11.544195zm22.70437,-87.347134l-33.862183,0l0,33.862183l33.862183,0l0,-33.862183zm-7.503136,26.357866l-18.85473,0l0,-18.855912l18.85473,0l0,18.855912zm-3.65704,-15.200053l-11.544195,0l0,11.544195l11.544195,0l0,-11.544195zm64.646308,0l-11.545376,0l0,11.544195l11.545376,0l0,-11.544195zm-87.348315,87.349497l33.862183,0l0,-33.863365l-33.862183,0l0,33.863365zm7.504317,-26.356684l18.85473,0l0,18.855912l-18.85473,0l0,-18.855912zm45.600159,-41.3665l7.695736,0l0,-23.088389l-7.695736,0l0,-7.695736l-7.699281,0l0,7.695736l-7.695736,0l0,7.695736l15.395017,0l0,7.695736l-15.393835,0l0,7.695736l7.695736,0l0,7.695736l-7.695736,0l0,7.695736l-23.088389,0l0,-7.695736l-7.695736,0l0,7.695736l-7.695736,0l0,7.696917l15.391472,0l0,7.695736l15.391472,0l0,-7.695736l15.391472,0l0,38.478679l46.17796,0l0,-23.086026l-7.695736,0l0,7.695736l-15.39029,0l0,7.696917l-15.392653,0l0,-15.392653l7.695736,0l0,-7.696917l15.391472,0l0,-7.695736l7.696917,0l0,7.695736l7.695736,0l0,-15.391472l-38.479861,0l0,-15.391472zm23.087208,38.479861l7.696917,0l0,-7.696917l-7.696917,0l0,7.696917zm-15.391472,0l0,7.695736l7.696917,0l0,-7.695736l-7.696917,0z" fill-rule="evenodd"/>
</svg>
