<svg xmlns="http://www.w3.org/2000/svg" xmlns:xlink="http://www.w3.org/1999/xlink" version="1.1" x="0px" y="0px" viewBox="0 0 100 125" style="enable-background:new 0 0 100 100;" xml:space="preserve"><path d="M88.586,52.414l-4.172,4.172c-0.781,0.781-2.047,0.781-2.828,0L50,25L18.414,56.586c-0.781,0.781-2.047,0.781-2.828,0  l-4.172-4.172c-0.781-0.781-0.781-2.047,0-2.828l37.172-37.172c0.781-0.781,2.047-0.781,2.828,0l37.172,37.172  C89.367,50.367,89.367,51.633,88.586,52.414z M50,29l28,28v29c0,1.105-0.895,2-2,2H50c-1.105,0-2-0.895-2-2V65c0-0.552-0.448-1-1-1  H33c-0.552,0-1,0.448-1,1v21c0,1.105-0.895,2-2,2h-6c-1.105,0-2-0.895-2-2V57L50,29z M56,75c0,0.552,0.448,1,1,1h10  c0.552,0,1-0.448,1-1V65c0-0.552-0.448-1-1-1H57c-0.552,0-1,0.448-1,1V75z"/></svg>