<svg xmlns="http://www.w3.org/2000/svg" xmlns:xlink="http://www.w3.org/1999/xlink" version="1.1" x="0px" y="0px" viewBox="0 0 100 100" style="enable-background:new 0 0 100 100;" xml:space="preserve"><g><path d="M62.8,63.4l-25-4c-1.1-0.2-2.1,0.6-2.3,1.7c-0.2,1.1,0.6,2.1,1.7,2.3l25,4c0.1,0,0.2,0,0.3,0c1,0,1.8-0.7,2-1.7   C64.6,64.6,63.9,63.6,62.8,63.4z"/><path d="M62.8,55l-25-4c-1.1-0.2-2.1,0.6-2.3,1.7c-0.2,1.1,0.6,2.1,1.7,2.3l25,4c0.1,0,0.2,0,0.3,0c1,0,1.8-0.7,2-1.7   C64.6,56.2,63.9,55.2,62.8,55z"/><path d="M62.8,46.6l-25-4c-1.1-0.2-2.1,0.6-2.3,1.7c-0.2,1.1,0.6,2.1,1.7,2.3l25,4c0.1,0,0.2,0,0.3,0c1,0,1.8-0.7,2-1.7   C64.6,47.8,63.9,46.7,62.8,46.6z"/><path d="M62.8,38.1l-25-4c-1.1-0.2-2.1,0.6-2.3,1.7c-0.2,1.1,0.6,2.1,1.7,2.3l25,4c0.1,0,0.2,0,0.3,0c1,0,1.8-0.7,2-1.7   C64.6,39.3,63.9,38.3,62.8,38.1z"/><path d="M37.2,29.7l25,4c0.1,0,0.2,0,0.3,0c1,0,1.8-0.7,2-1.7c0.2-1.1-0.6-2.1-1.7-2.3l-25-4c-1.1-0.2-2.1,0.6-2.3,1.7   C35.4,28.5,36.1,29.5,37.2,29.7z"/><path d="M60.3,70.9l-18.9-3c-1.8-0.3-3.4,1.1-3.4,3v5c0,0.8,0.2,1.2,1.1,1.2h5.1c-0.4,1-0.7,2-0.7,3.1c0,3.8,3.1,7,6.9,7   s6.9-3.2,6.9-7c0-1.1-0.2-2-0.7-3h4.3c0.8,0,1.9-0.4,1.9-1.2v-1.9C63,72.3,61.7,71.1,60.3,70.9z M50.4,83.1c-1.6,0-2.9-1.3-2.9-2.9   s1.3-2.9,2.9-2.9s2.9,1.3,2.9,2.9S52.1,83.1,50.4,83.1z"/><path d="M41.6,23.5l16,2.2c1.8,0.2,3.4-1.2,3.4-3v-8.1c0-0.8-0.7-1.6-1.5-1.6h-3c-0.8,0-1.5,0.7-1.5,1.5S54.3,16,53.5,16h-7   c-0.8,0-1.5-0.7-1.5-1.5S44.3,13,43.5,13h-3c-0.8,0-1.5,0.8-1.5,1.6v5.9C39,22,40.1,23.3,41.6,23.5z"/></g></svg>